<svg xmlns="http://www.w3.org/2000/svg" xmlns:xlink="http://www.w3.org/1999/xlink" width="111" height="75" viewBox="0 0 111 75"><defs><style>.a,.b{fill:#fff;}.b{font-size:27px;font-family:NunitoSans-ExtraBold, Nunito Sans;font-weight:800;}.c{fill:#e87c23;font-size:16px;font-family:NunitoSans-Light, Nunito Sans;font-weight:300;letter-spacing:0.1em;}.d{clip-path:url(#a);}.e,.f{fill:none;stroke-miterlimit:10;}.e{stroke:#fff;stroke-width:3px;}.f{stroke:#e87c23;stroke-width:2px;}</style><clipPath id="a"><path class="a" d="M0,0H50.912V27.766H25.395v30.2H0Z" transform="translate(0)"/></clipPath></defs><g transform="translate(6249 5666)"><g transform="translate(-6220.743 -5643.041)"><text class="b" transform="translate(-0.256 27.041)"><tspan x="0" y="0">Briefly</tspan></text><text class="c" transform="translate(0.744 46.041)"><tspan x="0" y="0">Networks</tspan></text></g><g class="d" transform="translate(-6249 -5666)"><g transform="translate(-4.402 -2.064)"><path class="e" d="M17.768,0,0,17.768,6.5,42.04l24.272,6.5L48.544,30.776,42.04,6.5Z" transform="matrix(0.966, 0.259, -0.259, 0.966, 12.564, 0)"/><path class="f" d="M11.5,0,0,11.5,4.211,27.22l15.715,4.211,11.5-11.5L27.22,4.211Z" transform="matrix(0.966, 0.259, -0.259, 0.966, 18.614, 10.479)"/></g></g></g></svg>