<svg xmlns="http://www.w3.org/2000/svg" xmlns:xlink="http://www.w3.org/1999/xlink" width="138" height="94" viewBox="0 0 138 94"><defs><style>.a{fill:#fff;}.b{fill:#080730;font-size:33px;font-family:NunitoSans-ExtraBold, Nunito Sans;font-weight:800;}.c{fill:#e87c23;font-size:20px;font-family:NunitoSans-Regular, Nunito Sans;letter-spacing:0.1em;}.d{clip-path:url(#a);}.e,.f{fill:none;stroke-miterlimit:10;}.e{stroke:#080730;stroke-width:6px;}.f{stroke:#e87c23;stroke-width:5px;}</style><clipPath id="a"><path class="a" d="M0,0H64.481V35.166H32.163V73.409H0Z" transform="translate(0)"/></clipPath></defs><g transform="translate(6249 5666)"><g transform="translate(-6213.198 -5636.516)"><text class="b" transform="translate(0.198 32.516)"><tspan x="0" y="0">Briefly</tspan></text><text class="c" transform="translate(1.198 57.516)"><tspan x="0" y="0">Networks</tspan></text></g><g class="d" transform="translate(-6249 -5666)"><g transform="translate(-5.575 -2.614)"><path class="e" d="M22.5,0,0,22.5,8.237,53.245l30.741,8.237,22.5-22.5L53.245,8.237Z" transform="matrix(0.966, 0.259, -0.259, 0.966, 15.913, 0)"/><path class="f" d="M14.571,0,0,14.571l5.334,19.9,19.9,5.333L39.809,25.238l-5.333-19.9Z" transform="matrix(0.966, 0.259, -0.259, 0.966, 23.576, 13.272)"/></g></g></g></svg>